<svg width="24" height="24" viewBox="0 0 128 128" xmlns="http://www.w3.org/2000/svg"><path fill="#3A4D54" fill-rule="evenodd" d="M74 51h11v11h6a26 26 0 0 0 11-3l-2-7c-1-3 0-8 3-11l1-1 1 1c4 3 7 7 7 11 5-1 10-1 13 2h2l-1 2c-3 6-10 8-16 8-10 24-31 36-57 36-13 0-26-5-33-17l-1-3c-2-5-3-10-2-16v-2h9V51h12V40h22V28h14z" clip-rule="evenodd"/><path fill="#00AADA" d="M110 55c1-6-3-10-6-13-3 4-4 14 1 18-3 2-8 4-14 4H19c-1 7 0 12 3 17v2l2 2h8l12-1h1v1l-1 1-9 1h-9c6 7 15 11 27 11 25 0 46-11 55-36 7 1 13-1 16-7-4-3-10-2-14 0"/><path fill="#28B8EB" d="M110 55c1-6-3-10-6-13-3 4-4 14 1 18-3 2-8 4-14 4H23c-1 10 3 17 9 21l12-1h1v1l-1 1-9 1c9 4 21 4 35-1 16-6 31-18 41-31h-1"/><path fill="#028BB8" d="m19 72 3 9v2l2 2h8l12-1h1v1l-1 1-9 1h-9c6 7 15 11 27 11 21 0 40-8 51-26H19z"/><path fill="#019BC6" d="M24 72c1 6 4 10 8 13l12-1h1v1l-1 1-9 1c9 4 21 4 35-1 8-3 17-8 24-14z"/><path fill="#00ACD3" fill-rule="evenodd" d="M28 53h10v10H28zm1 1h1v8h-1zm2 0v8zm1 0h1v8h-1zm2 0v8zm1 0h1v8h-1zm2 0v8zm3-12h9v9h-9zm0 0h1v8h-1zm2 0h1v8h-1zm1 0h1v8h-1zm2 0h1v8h-1zm1 0h1v8h-1zm2 0h1v8h-1z" clip-rule="evenodd"/><path fill="#23C2EE" fill-rule="evenodd" d="M40 53h9v10h-9zm1 1v8h-1zm1 0h1v8h-1zm1 0h1v8h-1zm2 0h1v8h-1zm1 0h1v8h-1zm2 0h1v8h-1z" clip-rule="evenodd"/><path fill="#00ACD3" fill-rule="evenodd" d="M51 53h10v10H51zm1 1v8zm1 0h1v8h-1zm2 0v8zm1 0h1v8h-1zm2 0v8zm1 0h1v8h-1z" clip-rule="evenodd"/><path fill="#23C2EE" fill-rule="evenodd" d="M51 42h10v9H51zm1 0v8zm1 0h1v8h-1zm2 0v8zm1 0h1v8h-1zm2 0v8zm1 0h1v8h-1zm3 11h10v9H62zm1 0h1v9h-1zm1 0h1v9h-1zm2 0h1v9h-1zm1 0h1v9h-1zm2 0h1v9h-1zm1 0h1v9h-1z" clip-rule="evenodd"/><path fill="#00ACD3" fill-rule="evenodd" d="M62 42h10v9H62zm1 0h1v8h-1zm2 0v8h-1zm1 0h1v8h-1zm1 0h1v8h-1zm2 0h1v8h-1zm1 0h1v8h-1z" clip-rule="evenodd"/><path fill="#23C2EE" fill-rule="evenodd" d="M62 30h10v10H62zm1 1h1v8h-1zm2 0v8h-1zm1 0h1v8h-1zm1 0h1v8h-1zm2 0h1v8h-1zm1 0h1v8h-1z" clip-rule="evenodd"/><path fill="#00ACD3" fill-rule="evenodd" d="M74 53h9v10H73zm0 1h1v8h-1zm2 0h1v8h-1zm1 0h1v8h-1zm2 0h1v8h-1zm1 0h1v8h-1zm2 0h1v8h-1z" clip-rule="evenodd"/><path fill="#D4EEF1" fill-rule="evenodd" d="M49 78c1 0 2 1 2 3s-1 3-2 3-3-1-3-3 1-3 3-3" clip-rule="evenodd"/><path fill="#3A4D54" fill-rule="evenodd" d="M49 79v1l1 1 1-1v1a2 2 0 1 1-2-2M1 73h126c-3-1-9-2-8-5-5 5-17 4-20 1-4 5-23 3-25-1-4 5-17 5-21 0-1 4-21 6-24 1-3 3-15 4-20-1 1 3-5 4-8 5" clip-rule="evenodd"/><path fill="#BFDBE0" d="M56 98c-7-3-10-8-12-12l-9 1H25c6 6 14 11 28 11z"/><path fill="#D4EEF1" d="m46 90-2-4-9 1 11 3"/></svg>