<svg width="24" height="24" viewBox="0 0 128 128" xmlns="http://www.w3.org/2000/svg"><path d="M94 92c1-6 0-7 5-6h1l12-2c6-3 10-8 4-7-14 3-15-1-15-1 15-22 21-50 15-57-14-18-39-9-40-9l-9-1c-6 0-11 2-15 4 0 0-44-18-42 23 0 9 12 67 27 50l10-12c3 2 6 2 9 2h1v2c-4 5-3 5-11 7-7 2-3 4 0 5 4 1 12 2 17-6v1c2 1 2 9 2 14l1 13c1 3 3 10 13 8 8-2 14-4 15-28"/><path d="M75 125c-4 0-7-1-8-3l-5-8-2-15v-5a19 19 0 0 1-5 1H45c-2-1-5-2-6-4-5 4-9 3-11 2-4-1-7-5-10-11A160 160 0 0 1 5 36C4 25 8 15 15 10c12-8 30-3 37-1 4-3 9-4 15-4l9 1 15-2c12 0 22 5 29 13 5 7 3 20 1 27-3 10-8 21-13 31l7-1c6-2 8 2 8 3 2 6-6 11-9 12-3 2-9 3-14 3l-1-1v2c-1 12-2 20-6 25s-9 7-13 8h-5m-9-43c3 2 3 6 4 14v3a52 52 0 0 0 1 12c1 4 2 5 7 4 4 0 6-1 7-3 3-4 4-10 4-20h5-5v-2c1-4 1-6 4-8 2-2 4-2 6-1l-3-4v-2l1-2c6-10 12-21 14-32 3-12 3-18 2-19-12-15-32-9-35-8l-2 1h-1l-8-1c-5 0-9 1-12 3l-2 2-2-1c-6-3-22-7-30-1-5 3-7 10-6 19l5 27c5 15 9 21 11 21l2-1a271 271 0 0 1 11-12l3-3 3 2 4 1 8-6-1 11v2l1 2-2 2 4 2z"/><path fill="#336791" d="M116 77c-14 3-15-1-15-1 15-22 21-50 15-57-14-18-39-9-40-9l-9-1c-6 0-11 2-15 4 0 0-44-18-42 23 0 9 12 67 27 50l10-12c3 2 6 2 9 2h1v2c-4 5-3 5-11 7-7 2-3 4 0 5 4 1 12 2 17-6v1c2 2 3 8 3 14v13c2 3 3 10 13 8 8-2 12-6 13-14l1-9 1-3c1-7 0-9 5-8h1l12-2c6-3 10-8 4-7"/><path fill="#fff" d="M76 122c-8 0-11-6-12-9-2-4-2-19-2-31a2 2 0 0 1 2-2 2 2 0 0 1 2 2c-1 14 0 27 1 30 2 4 5 8 12 7 8-2 10-5 12-12l3-24a2 2 0 0 1 1-1 2 2 0 0 1 2 2l-3 24c-2 8-5 12-14 14h-4M31 90a7 7 0 0 1-2 0c-5-2-10-10-15-26-4-11-6-24-6-28-1-11 2-20 9-24 13-10 35-1 36-1a2 2 0 0 1-1 3c-1 0-22-8-33 0-6 4-8 12-8 22 0 3 2 15 6 27 4 14 9 23 13 24 1 0 3 1 6-2a245 245 0 0 1 10-12 2 2 0 0 1 2 2L38 87c-2 3-5 3-7 3m70-13a2 2 0 0 1-2-2c15-23 21-49 16-55-6-7-14-11-24-11l-14 2-2-1a2 2 0 0 1 1-2l15-2c11 0 20 4 27 12 3 4 3 13 0 24-3 12-9 24-16 34l-1 1m1 10-7-1-1-3c-1-6 3-7 5-8l-1-1-4-6-1-3c-4-6-11-20-7-27 3-3 7-4 14-3-2-6-11-24-33-25-7 0-12 2-16 6-9 9-9 26-9 26a2 2 0 1 1-3 0c0-1 0-18 10-28 4-5 11-7 18-7 14 0 23 7 28 13 5 7 8 14 8 16l-1 2h-1c-6-1-10 0-12 2-4 5 3 18 6 23l2 3 3 6 2 3s2 3 13 1c3-1 5 0 5 1 1 3-4 7-7 8l-11 2m-5-4 6 1 8-2 5-3c-7 1-12 1-15-1h-1c-2 1-3 1-3 5m-46 9-5-1c-2 0-5-2-5-4 0-3 4-3 5-4 5-1 6-1 7-3l2-3 4-2 3 1c1 0 3 2 3 4v5c-4 5-8 7-14 7m-7-5 3 1 4 1c5 0 8-2 11-6v-2l-2-2-1-1-1 1a41 41 0 0 0-2 3c-2 2-3 3-9 4l-3 1m12-7a2 2 0 0 1-1-2c-4 0-8-2-11-5-4-4-6-10-5-15V42c0-1 0-2 5-4 1-1 5-3 8-3 6 0 10 2 11 7 3 15 0 21-2 25l-1 3v1l-2 7a2 2 0 0 1-1 2zM42 42l1 1-1 15c0 5 1 9 4 13 2 2 6 3 9 3l2-4v-1l1-3c2-4 4-10 2-23-1-3-2-4-5-5-4-1-11 3-13 4m10 0s1 2 3 2l2-2-2-1-3 1m3 2-3-1v-1l2-2a7 7 0 0 1 3 1l1 1-3 2m-2-2 2 1 2-1-2-1a6 6 0 0 0-1 0l-1 1m43-2-2 3c-2 0-3-1-3-2l2-1h3m-3 3-2-2 2-1 1-1 2 1v2l-2 1zm1-3h-1l-2 1 2 1h2l1-2h-2m4 33a2 2 0 0 1-1-3c3-5 3-10 2-15V43l1-6a2 2 0 1 1 3-1l-1 7v12c1 5 2 11-2 17a2 2 0 0 1-2 1"/></svg>