<svg width="24" height="24" viewBox="0 0 128 128" xmlns="http://www.w3.org/2000/svg"><path fill="#22314e" d="M34 22c0 7-6 13-12 13-7 0-12-6-12-13 0-6 5-12 12-12s12 6 12 12Zm0 43c0 7-6 12-12 12-7 0-12-5-12-12s5-12 12-12 12 5 12 12m0 43c0 6-6 12-12 12-7 0-12-6-12-12s5-13 12-13 12 6 12 13Zm42-43c0 7-5 12-12 12s-12-5-12-12 5-12 12-12 12 5 12 12m0-43c0 7-5 13-12 13s-12-6-12-13c0-6 5-12 12-12s12 6 12 12Zm42 43c0 7-5 12-12 12s-12-5-12-12 6-12 12-12c7 0 12 5 12 12m0-43c0 7-5 13-12 13s-12-6-12-13c0-6 6-12 12-12 7 0 12 6 12 12Zm0 86c0 6-5 12-12 12s-12-6-12-12 6-13 12-13c7 0 12 6 12 13Zm-42 0c0 6-5 12-12 12s-12-6-12-12 5-13 12-13 12 6 12 13Zm0 0"/></svg>
