<svg width="24" height="24" viewBox="0 0 128 128" xmlns="http://www.w3.org/2000/svg"><path fill="#ff3e00" d="M110 17A39 39 0 0 0 58 6L28 25a34 34 0 0 0-15 23 25 31 0 0 0-1 6 36 36 0 0 0 4 17 34 34 0 0 0-5 13 25 30 0 0 0 1 14 37 37 0 0 0 6 13c11 17 35 22 52 11l30-19a34 34 0 0 0 15-23 36 36 0 0 0 1-6 36 36 0 0 0-4-17 34 34 0 0 0 5-12v-7c0-7-2-15-7-21z"/><path fill="#fff" d="M55 113a28 34 0 0 1-6 0 24 24 0 0 1-19-10 22 22 0 0 1-4-13 16 19 0 0 1 0-3 15 19 0 0 1 1-3v-2l2 1a39 39 0 0 0 12 6h1v2a7 7 0 0 0 1 4 7 7 0 0 0 2 2 8 10 0 0 0 4 1 8 10 0 0 0 1 0 7 9 0 0 0 2-1l30-19a6 6 0 0 0 3-5 7 7 0 0 0-1-4 7 7 0 0 0-3-2 8 10 0 0 0-3-1 8 10 0 0 0-2 0 7 8 0 0 0-2 1l-11 7a24 29 0 0 1-6 3 24 24 0 0 1-26-10 22 22 0 0 1-4-12l1-4a21 21 0 0 1 9-14l30-19a22 22 0 0 1 6-3 24 24 0 0 1 6 0 24 24 0 0 1 19 10 22 22 0 0 1 4 12 16 19 0 0 1 0 4 15 19 0 0 1-1 3v2l-2-1a38 38 0 0 0-12-6h-1v-2l-1-4a7 7 0 0 0-2-2 8 10 0 0 0-4-1 8 10 0 0 0-1 0 7 8 0 0 0-2 1L46 50a6 7 0 0 0-2 2 5 6 0 0 0-1 2 5 6 0 0 0 0 1l1 4a7 7 0 0 0 3 2 8 10 0 0 0 3 1 8 10 0 0 0 2 0 7 8 0 0 0 2-1l11-7a24 29 0 0 1 6-3 29 34 0 0 1 6-1 24 24 0 0 1 20 11 22 22 0 0 1 3 16 21 21 0 0 1-9 14l-30 19a24 29 0 0 1-6 3z"/></svg>